<?xml version="1.0" encoding="utf-8"?>
<!-- Generator: Adobe Illustrator 21.1.0, SVG Export Plug-In . SVG Version: 6.00 Build 0)  -->
<svg version="1.1" id="Layer_1" xmlns="http://www.w3.org/2000/svg" xmlns:xlink="http://www.w3.org/1999/xlink" x="0px" y="0px"
	 viewBox="0 0 512 512" style="enable-background:new 0 0 512 512;" xml:space="preserve">
<style type="text/css">
	.st0{fill:#1D547C;}
</style>
<path class="st0" d="M328.3,98.4H183.7c-47,0-85.3,38.3-85.3,85.3v144.5c0,47,38.3,85.3,85.3,85.3h144.5c47,0,85.3-38.3,85.3-85.3
	V183.7C413.6,136.7,375.3,98.4,328.3,98.4z M395.1,328.3c0,36.9-30,66.8-66.8,66.8H183.7c-36.9,0-66.8-30-66.8-66.8V183.7
	c0-36.9,30-66.8,66.8-66.8h144.5c36.9,0,66.8,30,66.8,66.8v144.6H395.1z"/>
<path class="st0" d="M256,169.8c-47.5,0-86.2,38.7-86.2,86.2s38.7,86.2,86.2,86.2s86.2-38.7,86.2-86.2S303.5,169.8,256,169.8z
	 M256,323.7c-37.3,0-67.7-30.4-67.7-67.7s30.4-67.7,67.7-67.7s67.7,30.4,67.7,67.7S293.3,323.7,256,323.7z"/>
<path class="st0" d="M344.2,139.2c-14,0-25.5,11.4-25.5,25.5c0,14,11.4,25.5,25.5,25.5s25.5-11.4,25.5-25.5
	C369.7,150.6,358.3,139.2,344.2,139.2z M344.2,171.7c-3.9,0-7-3.1-7-7s3.1-7,7-7s7,3.1,7,7C351.2,168.5,348.1,171.7,344.2,171.7z"/>
<g>
	<g>
		<path class="st0" d="M512,256C512,114.6,397.4,0,256,0S0,114.6,0,256s114.6,256,256,256S512,397.4,512,256z M23.3,256
			C23.3,127.5,127.5,23.3,256,23.3S488.7,127.5,488.7,256S384.5,488.7,256,488.7S23.3,384.5,23.3,256z"/>
	</g>
</g>
</svg>
